<svg xmlns="http://www.w3.org/2000/svg" viewBox="0 0 64 64" width="64" height="64">
  <defs>
    <linearGradient id="ss-bg" x1="0" y1="0" x2="0" y2="1">
      <stop offset="0" stop-color="#FF8526"/>
      <stop offset="1" stop-color="#FF6B1F"/>
    </linearGradient>
  </defs>
  <rect width="64" height="64" rx="14" ry="14" fill="url(#ss-bg)"/>
  <path d="M44 22.4c-2.6-3.4-6.6-5-11.5-5-3.6 0-6.6.9-8.9 2.7-2.4 1.8-3.6 4.2-3.6 7.2 0 2.7.9 4.8 2.7 6.4 1.8 1.5 4.6 2.7 8.5 3.6 2.7.6 4.5 1.3 5.4 2 .9.7 1.4 1.6 1.4 2.7 0 1.4-.6 2.5-1.7 3.3-1.1.8-2.7 1.2-4.7 1.2-3.7 0-6.5-1.4-8.5-4.2L18 45.6c1.5 2.1 3.6 3.7 6.2 4.8 2.6 1.1 5.5 1.6 8.7 1.6 3.9 0 7.1-.9 9.5-2.8 2.5-1.9 3.7-4.4 3.7-7.5 0-2.7-.9-4.9-2.8-6.5-1.8-1.6-4.7-2.8-8.6-3.7-2.7-.6-4.5-1.2-5.3-1.9-.8-.7-1.3-1.5-1.3-2.6 0-1.3.5-2.3 1.6-3 1-.8 2.5-1.1 4.4-1.1 3.1 0 5.6 1.2 7.4 3.6L44 22.4z" fill="#FFFFFF"/>
</svg>
